# xmcd
#
# Track frame offsets: 
#        150
#        23106
#        36805
#        50767
#        61533
#        74946
#        92554
#        109583
#        125069
#        141507
#        170152
#        185087
#        197429
#        216899
#        233368
#        262350
#        280802
#        296166
#        310519
#        325084
#        340465
#
# Disc length: 4789 seconds
#
# Revision: 3
# Processed by: cddbd v1.5.2PL0 Copyright (c) Steve Scherf et al.
# Submitted via: ExactAudioCopyFreeDBPlugin 1.0
#
DISCID=4e12b315
DTITLE=Al Green - Greatest Hits - The Best of Al Green [CD2]
DYEAR=2014
DGENRE=Soul
TTITLE0=Love and Happiness
TTITLE1=Call Me (Come Back Home)
TTITLE2=Keep Me Cryin'
TTITLE3=What Am I Gonna Do with Myself?
TTITLE4=Driving Wheel
TTITLE5=Light My Fire
TTITLE6=I'm a Ram
TTITLE7=It Ain't No Fun to Me
TTITLE8=I've Never Found a Girl
TTITLE9=How Can You Mend a Broken Heart?
TTITLE10=I'm Hooked on You
TTITLE11=I Gotta Be More (Take Me Higher)
TTITLE12=Love Ritual
TTITLE13=What a Wonderful Thing Love Is
TTITLE14=For the Good Times
TTITLE15=Could I Be the One?
TTITLE16=I Tried to Tell Myself
TTITLE17=I'm So Lonesome I Could Cry
TTITLE18=One of These Good Old Days
TTITLE19=Starting All Over Again
TTITLE20=Simply Beautiful
EXTD=
EXTT0=
EXTT1=
EXTT2=
EXTT3=
EXTT4=
EXTT5=
EXTT6=
EXTT7=
EXTT8=
EXTT9=
EXTT10=
EXTT11=
EXTT12=
EXTT13=
EXTT14=
EXTT15=
EXTT16=
EXTT17=
EXTT18=
EXTT19=
EXTT20=
PLAYORDER=
